<svg xmlns="http://www.w3.org/2000/svg"><style>:root svg:not(:target){display:none}</style><svg viewBox="0 0 40 40" id="alarm"><path d="M12.75 5c-1 0-1 1.5 0 1.5H19v1.52c-6.4.41-11.46 5.9-11.46 12.6 0 3.8 1.64 7.23 4.23 9.54.45.4.51 1.11.1 1.55l-1.44 1.47c-.7.65.34 1.66.97.95l1.88-1.93c.33-.32.82-.4 1.23-.2a11.88 11.88 0 0 0 10.41.06c.4-.2.9-.12 1.22.2l1.82 1.87c.64.6 1.56-.3.98-.95l-1.36-1.4c-.42-.43-.36-1.14.1-1.55A12.75 12.75 0 0 0 32 20.61c0-6.7-5.09-12.2-11.5-12.59V6.5h6.25c1 0 1-1.5 0-1.5h-14ZM8.89 20.61c0-6.19 4.87-11.2 10.88-11.2 6 0 10.87 5.01 10.87 11.2 0 6.2-4.87 11.22-10.87 11.22-6 0-10.88-5.02-10.88-11.22Zm10.12-7.67c0-1.04 1.56-1.04 1.56 0v8.18a.8.8 0 0 1-.8.8.76.76 0 0 1-.76-.75v-8.23Zm-4.68 2.48a1.09 1.09 0 1 0 0-2.18 1.09 1.09 0 0 0 0 2.17v.01Zm10.87 0a1.09 1.09 0 1 0 0-2.18 1.09 1.09 0 0 0 0 2.17v.01Zm-9.78 11.93c0 1.45-2.18 1.45-2.18 0s2.18-1.45 2.18 0Zm4.35 3.26a1.1 1.1 0 1 0 .2-2.17 1.1 1.1 0 0 0-.2 2.17Zm-7.61-9.84a1.1 1.1 0 1 1-2.17.2 1.1 1.1 0 0 1 2.17-.2Zm16.3 1.09a1.1 1.1 0 1 0 .2-2.17 1.1 1.1 0 0 0-.2 2.17Zm-2.17 5.5c0 1.44-2.18 1.44-2.18-.01s2.18-1.45 2.18 0v.01Z" fill="#fff"></path></svg><svg viewBox="0 0 32 24" id="arrow"><path d="M0 11v2h25v4l7-5-7-5v4z"></path></svg><svg fill="none" viewBox="0 0 24 18" id="arrows-slider"><path fill="#666" d="M8 0 0 9l8 9V0Zm16 9-8-9v18l8-9Z"></path></svg><svg viewBox="0 0 24 24" id="burger"><path stroke="#000" stroke-width="1.5" d="M0 4.25h24m-24 8h24m-24 8h24"></path></svg><svg viewBox="0 0 280 280" id="cat-sitting"><path d="M179.68 29h-.76a6.956 6.956 0 0 0-2.92 3.147 30.524 30.524 0 0 0-2.58 6.75 3.214 3.214 0 0 1-1.022 1.827c-.535.48-1.217.77-1.938.825a14.755 14.755 0 0 0-6.105 2.543 14.57 14.57 0 0 0-4.355 4.94 53.806 53.806 0 0 0-3.7 7.917c-2.84 7.284-5.02 14.806-7.7 22.15-1.26 3.344-1.32 3.344-5.12 3.344-4.54 0-4.22-.692-4.28 4.256 0 1.564.48 2.355 2.16 2.276.52 0 1.3-.257 1.5.416.2.673-.48.97-.88 1.366a18.05 18.05 0 0 1-8.66 4.83c-3.8 1.009-7.68 1.8-11.38 3.028-9.5 3.147-18.28 7.541-25.12 14.984a55.305 55.305 0 0 0-9.48 15.518c-7.34 17.102-10.9 35.114-13.66 53.305-1.3 8.531-2.22 17.102-2.92 25.732C70.4 212.39 70 216.685 70 221h66.66a4.278 4.278 0 0 0-.46-2.534 9.9 9.9 0 0 0-3.025-4.032 10.039 10.039 0 0 0-4.635-2.044c-1.4-.317-1.56-.733-.7-1.821a20.41 20.41 0 0 0 3.18-6.136c3.26-9.521 4.52-19.458 6.1-29.295a58.966 58.966 0 0 1 6.88-21.437 42.908 42.908 0 0 1 11.18-12.609c1.66-1.247 1.72-1.247 2 .871.2 1.406.24 2.851.34 4.276.6 9.351.48 18.734-.36 28.067a120.805 120.805 0 0 0-.3 21.774A147.413 147.413 0 0 0 161.4 221H188a10.665 10.665 0 0 0-2.858-5.7 10.85 10.85 0 0 0-5.622-3.088 18.173 18.173 0 0 0-7.52.395c-1.2.278-1.7 0-1.8-1.286a110.44 110.44 0 0 1 2-31.314 348.463 348.463 0 0 0 6.12-35.985 34.886 34.886 0 0 1 4.56-13.856c2.38-4.196 4.46-8.551 6.8-12.767a11.506 11.506 0 0 0 .84-10.273c-.54-1.405-1.06-2.83-1.72-4.176-2-3.86-4-7.68-5.84-11.58-.98-1.98-.76-2.217 1.42-2.276 3.26 0 3.26 0 3.32-3.246V84.54c0-1.365-.52-2.117-2-1.979h-3.04c-1.38 0-1.78-.574-1.44-1.98a12.342 12.342 0 0 1 3.822-5.882 12.54 12.54 0 0 1 6.438-2.886 44.446 44.446 0 0 1 13.24.851 2.017 2.017 0 0 0 1.512-.126c.468-.237.823-.647.988-1.14.8-1.98 1.68-3.96 2.58-5.939a1.96 1.96 0 0 0-.2-2.256c-6.4-8.037-13.34-15.538-22.8-20.348a2.973 2.973 0 0 1-1.165-.887 2.939 2.939 0 0 1-.595-1.33 38.465 38.465 0 0 0-2.54-8.235A6.944 6.944 0 0 0 179.68 29z"></path></svg><svg viewBox="0 0 280 280" id="cat-walking"><path d="M250.2 95.6a30.402 30.402 0 0 1 9-9.2c2-1.4 3.2-1.4 4.4 1.2 1.6 3.8 3 7.8 1.8 12a4.577 4.577 0 0 0 .8 4.2c1.2 1.6 2.2 3.2 3.2 4.6a12.54 12.54 0 0 1 1.8 12.4 10.865 10.865 0 0 0-.4 6.2c.4 1.98.4 4.02 0 6a7.502 7.502 0 0 1-5.4 6.4 10.424 10.424 0 0 0-6.4 4 2.104 2.104 0 0 1-1.8 1c-2.4.4-8.4-5-8.4-7.4v-1.2c.2-7.2-.2-7.8-6.8-10.8a8.779 8.779 0 0 1-3.6-2.4c-1.2-1.6-2.8-1.4-4.6-.8-1.8.6-2.8 1.8-2.6 3.8.603 4.842.804 9.725.6 14.6.013.556.15 1.103.4 1.6 6.2 9 8.6 19.6 11.6 29.8 2.4 7.8 6.8 12 14.8 12.6 1.28.102 2.551.303 3.8.6a8.322 8.322 0 0 1 6.8 6.4c1.4 4.2.6 5.2-3.6 5.2h-13a6.481 6.481 0 0 1-4.6-1.6 23.413 23.413 0 0 0-6.8-4 14.525 14.525 0 0 1-6.8-5.2 57.213 57.213 0 0 0-8-9c-5.6-5.8-11.6-11.4-16.8-17.4a22.758 22.758 0 0 1-6.4-15.2c0-1.8-.4-2.6-2.4-1.8a3.865 3.865 0 0 1-2 .6c-5.6 0-8.4 3.4-10.4 8.4-1.8 4.2-4.2 8.2-6.4 12.4a20.786 20.786 0 0 0-2 8.4c0 4.8 1.2 6.4 5.6 8 2.8 1 5.4 2 6.8 4.8 1.6 3.2 1.2 4-2.2 4.2h-13.6a3.763 3.763 0 0 1-3.8-2.2l-3.6-6a12.103 12.103 0 0 1-1.4-10.8c.866-3.473.934-7.097.2-10.6a16.841 16.841 0 0 1 3.4-14c1.2-1.4 1.2-2-.8-2.4a100.105 100.105 0 0 1-23.6-8.2.197.197 0 0 1-.141-.059.197.197 0 0 1-.059-.141c-6.4-2.4-7.6-2-9.4 4.6-1.6 5.6-3.2 11.2-4.4 17-1.4 6.4.2 12.4 2.2 18.4.8 2.4 3.2 2.2 5 2.8 4 1.2 7.4 2.8 9 7 1.4 3.2 1.2 3.6-2.2 3.6-3.4 0-6.8-.2-10.4 0a13.278 13.278 0 0 1-8.4-2.8c-9.6-6.4-12.4-16.2-13.2-26.8-.4-6.6-4-11.8-8.2-16.8-.8-1-1.6-1.4-2.8-.6a88.649 88.649 0 0 1-13.4 6 53.421 53.421 0 0 0-24.4 17.6 21.26 21.26 0 0 0-4.4 10.2c-.6 3.6.4 5.2 4 6.2s5.4 3 5.8 6.8c.2 1.6-.4 2.4-2 2.4H53.4a3.308 3.308 0 0 1-2.6-1.6 17.121 17.121 0 0 1-3.8-11c-.105-6.91.498-13.813 1.8-20.6a12.594 12.594 0 0 1 6.8-9.6c11.8-5.6 18-16.2 23.6-27.2 1.2-2.2.2-2.6-1.8-2.4a32.94 32.94 0 0 0-15.4 6.4 141.256 141.256 0 0 0-16.6 14.2 33.343 33.343 0 0 1-20.6 9.8c-14.6.8-21.4-7.4-20.8-20.6a19.378 19.378 0 0 1 4.8-12.2 8.504 8.504 0 0 1 9-3c3 .8 3.8 2.4 2.6 5.4-.6 1.2-1.4 2.2-2 3.4a15 15 0 0 0-2 4c-2.2 6 .8 10.2 7 10.8 6.6.6 12-2.2 17-6.2a89.903 89.903 0 0 0 16-16.6A41.579 41.579 0 0 1 85.2 97c4.6-.6 8.6-2.6 13-3.8a83.02 83.02 0 0 1 25.4-3.6 26.001 26.001 0 0 0 11.6-2.2c9.8-4 20-4 30.2-2 8 1.6 16 3.6 23.8 5.6a33.16 33.16 0 0 0 14-.4 135.58 135.58 0 0 1 26.8-4 36.32 36.32 0 0 1 17.2 3.4c4 1.8 4 1.8 3 5.6z"></path></svg><svg fill="none" viewBox="0 0 40 40" id="circle-slider"><rect width="38" height="38" x="1" y="1" fill="#fff" rx="19"></rect><rect width="38" height="38" x="1" y="1" stroke="#666" stroke-width="2" rx="19"></rect></svg><svg viewBox="0 0 24 24" id="cross"><path stroke="#000" stroke-width="1.5" d="m3.5 21.5 17-18m-17 0 17 18"></path></svg><svg viewBox="0 0 40 40" id="eat"><path d="M9.5 5a1 1 0 0 1 1 1v5.5c0 .56.2 1.32.7 1.92.36.42.92.82 1.8.99V6a1 1 0 1 1 2 0v8.41a3.02 3.02 0 0 0 1.8-1c.5-.6.7-1.35.7-1.91V6a1 1 0 1 1 2 0v5.5c0 .94-.3 2.18-1.17 3.2A5.11 5.11 0 0 1 15 16.45V34a1 1 0 1 1-2 0V16.44a5.11 5.11 0 0 1-3.33-1.73A5.07 5.07 0 0 1 8.5 11.5V6a1 1 0 0 1 1-1Zm17.12.08a1 1 0 0 1 1.09.21c.9.91 2.1 2.88 3.06 5.92A42.6 42.6 0 0 1 32.5 24a1 1 0 0 1-1 1H28v9a1 1 0 1 1-2 0V6a1 1 0 0 1 .62-.92ZM28 23h2.5a39.61 39.61 0 0 0-1.64-11.19 22.4 22.4 0 0 0-.86-2.3V23Z" fill="#fff"></path></svg><svg viewBox="0 0 20 20" id="email"><path d="M1.5 8.5v8h17v-8m-17-5h17v2l-8.5 6-8.5-6z" fill="none" stroke="#000" stroke-linecap="round" stroke-linejoin="round"></path></svg><svg viewBox="0 0 32 32" id="gift"><path fill="none" stroke="#fff" stroke-linejoin="bevel" d="M25.5 13.5v12a2 2 0 0 1-2 2h-15a2 2 0 0 1-2-2v-12m9.5 14v-14m-9.5 7h19M22 8.5c4.5-3-2.5-9.5-6 0-3.5-9.5-10.5-3-6 0m-4 5h20a1 1 0 0 0 1-1v-3a1 1 0 0 0-1-1H6a1 1 0 0 0-1 1v3a1 1 0 0 0 1 1Z"></path></svg><svg viewBox="0 0 60 60" id="htmlacademy"><path fill="#2E368F" d="M30.2 5H30L10.3 7.1v36.2L30 55l19.7-11.7V7.1L30.2 5zm17 36.8L30 52 12.8 41.8V27l17.1 10.2V39l-11.7-7v1.8L30 40.9v1.9l-11.8-7v1.8l11.8 7 11.9-7.1v-7.6l5.3-3.2v15.1zm-.1-17-4.7 2.8-2.2 1.3-10.3-6.1v1.8l8.8 5.3h-.1l-.2.1-1.3.7-7.3-4.3v1.8l5.8 3.4-1.4.9-4.3-2.6v1.8l2.9 1.7-2.9 1.7-17-10.1 17-10.2 17.2 10zm.1-1.8L29.9 12.8 12.8 23V9.4L30 7.6l17.2 1.8V23z"></path></svg><svg viewBox="0 0 40 40" id="leaf"><path d="M32.84 6.77a.95.95 0 0 0-.9-.77h-.01c-4.94.03-16.95.92-21.8 8.38-2.51 3.88-2.73 8.91-.64 14.96l.07.13a25.93 25.93 0 0 0-1.04 3.32 1 1 0 0 0 .72 1.19l.2.02c.43 0 .81-.32.9-.79.03-.1 2.42-10.37 10.86-16.38.43-.3.55-.92.26-1.38a.9.9 0 0 0-1.3-.28c-4.79 3.4-7.74 8-9.47 11.65-1.24-4.57-.92-8.37.99-11.3 3.74-5.76 12.62-7.15 17.98-7.45-1.16 1.8-2.41 5.1-2.41 10.93 0 3.12-.83 5.52-2.47 7.14-2.62 2.6-6.88 2.83-10 2.58-.51-.04-.96.38-1 .93-.04.55.35 1.03.86 1.07.63.05 1.3.08 1.98.08 3.18 0 6.87-.66 9.43-3.2 2.04-2 3.07-4.9 3.07-8.6 0-9.1 3.22-11.1 3.23-11.1.4-.21.6-.68.5-1.13Z" fill="#fff"></path></svg><svg viewBox="0 0 20 20" id="phone"><path d="M10 10h8.5m0 0L16 7.5m2.5 2.5L16 12.5m-7.5-10v5h-3v5h3v5H6c-1.5 0-2.5-1-2.5-2.5V5c0-1.5 1-2.5 2.5-2.5z" fill="none" stroke="#000" stroke-linecap="round" stroke-linejoin="round"></path></svg><svg viewBox="0 0 2 2" id="plus"><path d="M1 0v2M0 1h2" fill="none" stroke="gray" stroke-width="2" vector-effect="non-scaling-stroke"></path></svg><svg fill="none" viewBox="0 0 21 18" id="telegram"><path fill="#666" fill-rule="evenodd" d="M19.96.15c.18.15.27.38.23.61l-2.63 15.76a.66.66 0 0 1-1.01.44l-7.88-5.25a.66.66 0 0 1-.15-.96l2.61-3.26-4.36 2.9a.66.66 0 0 1-.65.05L.86 7.8a.66.66 0 0 1 .08-1.2L19.32.03a.66.66 0 0 1 .64.11ZM2.83 7.32 6.36 9.1l7.56-5.04a.66.66 0 0 1 .88.96L10 11l6.43 4.3 2.28-13.66L2.83 7.32Z" clip-rule="evenodd"></path></svg><svg viewBox="0 0 30 30" id="tick-checkbox"><path fill="#68B738" d="m13 19.72-5.7-6.45-1.05 1.19L13 22.09 24.25 9.37 23.2 8.09 13 19.72Z"></path></svg><svg viewBox="0 0 30 30" id="tick-radio"><circle cx="15" cy="15" r="6.5" fill="#68B738"></circle></svg><svg viewBox="0 0 40 40" id="tub"><path d="M17.6 3.99c-1.75 0-3.18 1.52-3.18 3.4 0 1.89 1.43 3.41 3.19 3.41s3.18-1.52 3.18-3.4c0-1.89-1.42-3.41-3.18-3.41zm0 1.34c1.07 0 1.94.92 1.94 2.07 0 1.14-.87 2.06-1.93 2.06-1.07 0-1.94-.92-1.94-2.06 0-1.15.87-2.07 1.94-2.07zM6.95 11.5c-.53 0-.58.6-.59.78v18.54c.35 2.41 1.4 3.94 3.93 4.19h20.58c2.36-.55 3.54-1.68 3.79-4.2V12.17c0-.58-.38-.65-.53-.66h-.5c-.5 0-.54.56-.54.68v18.66c-.32 1.54-.8 2.2-2.44 2.5 0 0-20.18 0-20.66-.04-1.47-.5-1.96-1.2-2.06-2.85V12.3c0-.83-.67-.8-.67-.8h-.3zM26 13.62c-.92-.02-1.5.14-1.5.14-1.2.27-2.35.42-4.66 2.6-2.3 2.17-4.02 2.07-5.74 1.96-1.71-.1-3.45-1.67-3.82-2.07-.37-.4-1.03-.13-1.2.13-.17.26-.17.71.12 1.13 1.4 1.28 2.72 2.3 5.25 2.54 2.52.24 4.9-.89 6.5-2.49 1.59-1.6 2.42-1.91 3.55-2.15 2.9-.45 4.56.69 5.62 1.45 1.07 1.18 1.37.86 1.71.52.61-.79-.25-1.36-1.15-2.12A8 8 0 0 0 26 13.62zm-11.77 8c-1.3 0-2.35 1.11-2.35 2.5 0 1.38 1.05 2.5 2.35 2.5 1.29 0 2.34-1.12 2.34-2.5 0-1.39-1.05-2.5-2.34-2.5zm12.55.85c-1.71 0-3.1 1.48-3.1 3.3 0 1.83 1.39 3.3 3.1 3.3 1.7 0 3.09-1.47 3.09-3.3 0-1.82-1.39-3.3-3.1-3.3zm0 1.6c.88 0 1.6.76 1.6 1.7 0 .95-.72 1.72-1.6 1.72-.89 0-1.6-.77-1.6-1.71 0-.95.71-1.72 1.6-1.72z" fill="#fff"></path></svg><svg fill="none" viewBox="0 0 28 17" id="vkontakte"><path fill="#666" d="M.5 2.34c0-.86.52-1.32 1.55-1.38l3.97.02c.26 0 .44.13.53.38.4 1.26.86 2.34 1.37 3.25.5.92 1.17 1.97 1.99 3.16.07.15.18.23.34.23.13 0 .22-.06.3-.18l.07-.28.03-4.35c0-.3-.07-.5-.23-.6-.15-.1-.43-.18-.83-.23-.32-.05-.48-.23-.48-.55 0-.07 0-.12.02-.15C9.51.57 10.57.03 12.33.03l1.5-.03c.67 0 1.23.16 1.67.48.44.32.67.82.67 1.5V7.7c.12.08.24.12.34.12.27 0 .5-.15.7-.45 1.95-2.58 3-4.31 3.17-5.18 0-.02.01-.06.05-.13.12-.25.33-.47.61-.65.29-.19.53-.31.75-.38a.55.55 0 0 1 .24-.05h4.13l.26.03c.36 0 .63.16.83.47.07.1.12.21.15.33a2.4 2.4 0 0 1 .06.55v.18a6.11 6.11 0 0 1-.94 2.2c-.5.78-1.15 1.62-1.93 2.53-.79.9-1.27 1.5-1.47 1.78-.16.2-.24.39-.24.56 0 .13.07.28.21.45l3.9 4.63c.2.26.31.56.31.88 0 .38-.16.7-.48.95-.32.25-.7.4-1.14.43l-.46.02h-4.04c-.02 0-.06 0-.11.02a.86.86 0 0 1-.1.01c-.4 0-.76-.16-1.1-.48-.12-.13-.96-1.12-2.5-2.97a1.39 1.39 0 0 0-.38-.32 38.47 38.47 0 0 0-.53 2.24l-.08.42a1.4 1.4 0 0 1-1.12 1.06l-.37.02h-2.61c-1.48 0-2.95-.63-4.41-1.9a19.3 19.3 0 0 1-3.96-4.95A47.51 47.51 0 0 1 .63 3.07a1.92 1.92 0 0 1-.13-.73Zm16.01 6.51c-.37 0-.7-.1-1.01-.29a.9.9 0 0 1-.45-.79V2c0-.34-.1-.58-.27-.72-.18-.14-.49-.21-.93-.21l-1.52.05c-.76 0-1.34.12-1.73.37.78.36 1.17.93 1.17 1.71v4.43a1.5 1.5 0 0 1-.53 1.04c-.32.28-.68.42-1.07.42-.53 0-.94-.24-1.22-.73a26.16 26.16 0 0 1-3.1-5.63l-.23-.66-3.55-.02c-.23 0-.36.01-.38.03-.03.03-.04.1-.04.22 0 .15.01.3.05.48l.56 1.4c1.49 3.64 3.11 6.51 4.86 8.6 1.75 2.1 3.47 3.15 5.16 3.15h2.66c.1 0 .19-.03.24-.09.05-.06.1-.17.13-.34l.06-.25.5-2.21c.15-.3.27-.5.38-.6.2-.2.42-.28.69-.28.43 0 .86.24 1.3.73l2.27 2.71c.14.22.3.33.45.33h4.4c.53 0 .8-.13.8-.38a.47.47 0 0 0-.08-.25l-3.87-4.55c-.3-.35-.45-.73-.45-1.13 0-.4.14-.8.43-1.16.23-.34.68-.9 1.34-1.67.67-.78 1.25-1.51 1.75-2.19.5-.68.82-1.3.98-1.85l.08-.33a.37.37 0 0 1-.02-.16c0-.07-.01-.14-.03-.19h-4.18c-.27.1-.48.25-.64.45L21.3 3c-.45 1.16-1.6 2.94-3.5 5.36-.36.33-.8.5-1.3.5Z"></path></svg><svg fill="none" viewBox="0 0 25 19" id="youtube"><path fill="#666" d="m16.35 8.8-5.24-3.5a.65.65 0 0 0-1.01.55v6.98a.65.65 0 0 0 1.01.54l5.24-3.49a.65.65 0 0 0 0-1.09Zm-4.94 2.8V7.08l3.4 2.27-3.4 2.27Zm12.48-8.56a2.4 2.4 0 0 0-1.45-1.63C18.72-.02 12.75 0 12.5 0S6.28-.02 2.56 1.4a2.4 2.4 0 0 0-1.45 1.64 25.32 25.32 0 0 0-.61 6.3c0 3.26.33 5.22.61 6.3a2.4 2.4 0 0 0 1.45 1.63c3.72 1.43 9.69 1.4 9.94 1.4h.08c.75 0 6.31-.04 9.86-1.4a2.4 2.4 0 0 0 1.45-1.64c.28-1.07.61-3.03.61-6.3 0-3.25-.33-5.22-.61-6.29Zm-1.27 12.27a1.1 1.1 0 0 1-.65.74c-3.5 1.34-9.4 1.32-9.47 1.32-.07 0-5.98.02-9.47-1.32a1.09 1.09 0 0 1-.65-.74c-.27-1-.57-2.85-.57-5.97 0-3.12.3-4.97.57-5.97a1.1 1.1 0 0 1 .65-.74c3.5-1.34 9.4-1.32 9.47-1.32.07 0 5.98-.02 9.47 1.32a1.1 1.1 0 0 1 .65.74c.27 1 .57 2.85.57 5.97 0 3.12-.3 4.96-.57 5.97Z"></path></svg></svg>